<?xml version="1.0" standalone="no"?>
<!DOCTYPE svg PUBLIC "-//W3C//DTD SVG 20010904//EN"
 "http://www.w3.org/TR/2001/REC-SVG-20010904/DTD/svg10.dtd">
<svg version="1.0" xmlns="http://www.w3.org/2000/svg"
 width="3300.000000pt" height="2550.000000pt" viewBox="0 0 3300.000000 2550.000000"
 preserveAspectRatio="xMidYMid meet">

<g transform="translate(0.000000,2550.000000) scale(0.100000,-0.100000)"
fill="#000000" stroke="none">
<path d="M9865 23144 c-1322 -34 -2249 -90 -3335 -199 -1482 -150 -2837 -386
-3680 -641 -104 -31 -351 -114 -358 -119 -2 -2 1752 -2308 1778 -2338 4 -4 38
4 76 18 1062 406 2548 760 4159 990 1169 167 2262 261 3695 317 436 17 2294
17 2755 0 2395 -89 4555 -306 6975 -701 96 -16 176 -28 178 -26 1 1 -442 350
-984 774 l-987 773 -181 49 c-1195 329 -2706 622 -4111 798 -1229 155 -2281
237 -3720 292 -255 9 -2003 20 -2260 13z"/>
<path d="M13390 20753 c-1920 -45 -3704 -223 -5455 -543 -1134 -207 -2272
-487 -3115 -766 -91 -30 -171 -58 -177 -62 -15 -9 1903 -2529 1921 -2524 6 2
74 29 151 61 1190 494 2783 907 4530 1176 1829 282 3935 414 5997 377 714 -13
989 -22 1593 -52 2072 -103 4218 -343 6484 -725 211 -36 385 -64 386 -62 1 1
-585 461 -1302 1022 l-1304 1020 -132 32 c-2902 703 -5923 1061 -8877 1051
-327 -1 -642 -3 -700 -5z"/>
<path d="M16620 17813 c-2835 -27 -5725 -367 -8170 -962 -626 -152 -1551 -418
-1549 -445 0 -6 499 -663 1108 -1461 839 -1098 1112 -1450 1127 -1448 10 1
131 47 267 102 769 313 1754 626 2787 885 4099 1029 8696 1202 13320 502 1515
-230 3094 -564 4584 -971 192 -52 350 -94 351 -92 1 1 -806 634 -1793 1406
l-1795 1404 -201 44 c-2415 524 -5050 872 -7491 988 -663 31 -1809 59 -2185
52 -69 -1 -231 -3 -360 -4z"/>
<path d="M1250 9543 c0 -1790 4 -3035 10 -3152 21 -412 85 -796 210 -1266 99
-369 187 -593 324 -828 174 -299 348 -520 620 -792 575 -574 1132 -848 2031
-1000 416 -70 1401 -135 2051 -135 872 0 1629 121 2229 357 663 260 1329 843
1725 1509 311 522 502 1154 565 1871 13 144 15 610 15 3281 l0 3112 -1710 0
-1710 0 0 -82 c0 -46 7 -1266 15 -2712 14 -2381 14 -2641 0 -2750 -58 -450
-207 -858 -400 -1097 -77 -95 -229 -246 -310 -306 -194 -146 -414 -203 -725
-189 -330 15 -612 82 -854 205 -132 67 -218 127 -321 223 -268 250 -452 692
-479 1153 -3 55 -10 1092 -16 2305 -6 1213 -13 2440 -16 2728 l-6 522 -1624 0
-1624 0 0 -2957z"/>
<path d="M12020 7520 l0 -4980 1635 0 1635 0 2 2219 3 2219 1744 -2219 1744
-2219 1574 0 1573 0 0 4980 0 4980 -1665 0 -1665 0 -2 -2056 -3 -2056 -1665
2056 -1664 2056 -1623 0 -1623 0 0 -4980z"/>
<path d="M23030 7520 l0 -4980 4325 0 4325 0 0 1390 0 1390 -2645 0 -2645 0 0
525 0 525 2385 0 2385 0 0 1210 0 1210 -2385 0 -2385 0 0 500 0 500 2575 0
2575 0 0 1355 0 1355 -4255 0 -4255 0 0 -4980z"/>
</g>
</svg>
