<svg version="1.1" id="Layer_1" xmlns="http://www.w3.org/2000/svg" xmlns:xlink="http://www.w3.org/1999/xlink" x="0px" y="0px"
	 width="100%" viewBox="0 0 3300 2550" enable-background="new 0 0 3300 2550" xml:space="preserve">
<path fill="#FFFFFF" opacity="1.000000" stroke="none" 
	d="
M1924.000000,2552.000000 
	C1282.666748,2552.000000 642.333557,2552.000000 2.000258,2552.000000 
	C2.000172,1702.000244 2.000172,852.000549 2.000086,2.000600 
	C1101.999512,2.000400 2201.999023,2.000400 3301.999023,2.000200 
	C3301.999268,851.999329 3301.999268,1701.998657 3301.999512,2551.999023 
	C2843.000000,2552.000000 2384.000000,2552.000000 1924.000000,2552.000000 
M1862.331543,1435.000000 
	C1862.331543,1526.428589 1862.331543,1617.857178 1862.331543,1709.285767 
	C1861.735352,1709.426392 1861.139038,1709.567017 1860.542847,1709.707642 
	C1750.621582,1573.967529 1640.700439,1438.227417 1531.200684,1303.007812 
	C1422.036987,1303.007812 1313.535400,1303.007812 1205.112549,1303.007812 
	C1203.147095,1320.908447 1203.941650,2290.970947 1205.853149,2297.857666 
	C1314.388794,2297.857666 1422.924438,2297.857666 1532.614746,2297.857666 
	C1532.614746,2150.776855 1532.614746,2004.167358 1532.614746,1855.741211 
	C1535.275635,1858.872070 1536.609741,1860.338867 1537.831177,1861.894043 
	C1564.932129,1896.402222 1592.000610,1930.935791 1619.114868,1965.433350 
	C1704.779663,2074.424316 1790.478394,2183.388672 1876.069946,2292.437256 
	C1879.428223,2296.715576 1882.980225,2298.471436 1888.549438,2298.461426 
	C1988.871460,2298.285156 2089.193848,2298.338135 2189.516357,2298.304688 
	C2192.044922,2298.303955 2194.573486,2297.880127 2196.959961,2297.666260 
	C2199.142822,2274.207031 2198.174072,1309.933594 2196.052002,1302.828369 
	C2085.150879,1302.828369 1974.273071,1302.828369 1862.331543,1302.828369 
	C1862.331543,1346.545654 1862.331543,1389.772827 1862.331543,1435.000000 
M2453.000000,2298.332031 
	C2692.530762,2298.332031 2932.061523,2298.332031 3171.630371,2298.332031 
	C3171.630371,2205.153320 3171.630371,2113.061035 3171.630371,2021.369873 
	C3170.650635,2020.812988 3170.370361,2020.514160 3170.090088,2020.514038 
	C2996.104004,2020.438110 2822.117920,2020.382324 2648.131836,2020.324463 
	C2647.465332,2020.324219 2646.794922,2020.341064 2646.133545,2020.276733 
	C2645.475098,2020.212769 2644.816406,2020.091064 2644.176270,2019.924561 
	C2643.885498,2019.848999 2643.608887,2019.637817 2643.379883,2019.428955 
	C2643.136963,2019.207153 2642.958496,2018.914795 2642.957520,2018.913574 
	C2642.957520,1984.809937 2642.957520,1950.969849 2642.957520,1916.055420 
	C2802.345459,1916.055420 2961.109619,1916.055420 3119.805664,1916.055420 
	C3119.805664,1834.793335 3119.805664,1754.617065 3119.805664,1673.358643 
	C2960.520752,1673.358643 2801.756592,1673.358643 2643.070801,1673.358643 
	C2643.070801,1639.813354 2643.070801,1607.358521 2643.070801,1574.332275 
	C2672.436523,1574.332275 2701.064941,1574.332275 2729.693604,1574.332275 
	C2758.024902,1574.332275 2786.356445,1574.332275 2814.687744,1574.332275 
	C2843.352539,1574.332275 2872.017090,1574.332275 2900.681885,1574.332275 
	C2929.346680,1574.332275 2958.011230,1574.332275 2986.676025,1574.332275 
	C3015.007568,1574.332275 3043.339111,1574.389160 3071.670410,1574.316284 
	C3100.160400,1574.243042 3128.660645,1574.641479 3157.115723,1574.070679 
	C3157.115723,1482.969116 3157.115723,1393.128418 3157.115723,1302.965820 
	C2873.133545,1302.965820 2589.703613,1302.965820 2306.380615,1302.965820 
	C2306.380615,1635.044312 2306.380615,1966.487427 2306.380615,2298.332275 
	C2355.060059,2298.332275 2403.030029,2298.332275 2453.000000,2298.332031 
M128.331161,1621.000000 
	C128.331161,1715.984375 128.256485,1810.968872 128.427704,1905.953003 
	C128.448608,1917.543457 129.246292,1929.196533 130.624054,1940.708130 
	C134.332962,1971.697144 140.123764,2002.307251 147.959198,2032.553711 
	C155.815018,2062.878662 164.934296,2092.629150 180.513824,2120.093506 
	C202.584778,2159.000977 231.014832,2192.674805 264.627411,2221.911621 
	C299.952118,2252.637939 340.078278,2274.836426 385.118958,2288.322266 
	C425.740997,2300.484863 467.392212,2306.170410 509.414154,2309.544922 
	C542.145935,2312.173096 574.945801,2314.583740 607.757629,2315.404297 
	C639.000122,2316.185547 670.301086,2314.958496 701.569458,2314.291504 
	C739.188904,2313.489746 776.135254,2307.485107 812.913330,2299.831787 
	C892.074280,2283.358643 956.859985,2242.991211 1010.024170,2182.804443 
	C1045.617065,2142.510254 1070.207397,2096.297852 1085.926392,2045.018677 
	C1099.446899,2000.911743 1107.247681,1955.734009 1107.395142,1909.818726 
	C1108.033569,1710.853760 1107.671021,1511.885620 1107.650269,1312.918579 
	C1107.649902,1309.683716 1107.371948,1306.448853 1107.210205,1302.920410 
	C992.761230,1302.920410 878.986023,1302.920410 764.331177,1302.920410 
	C764.331177,1307.076416 764.307922,1310.675171 764.334717,1314.273560 
	C764.775330,1373.542114 765.319458,1432.810181 765.640991,1492.079346 
	C765.980774,1554.718872 766.175720,1617.359497 766.310120,1679.999756 
	C766.415283,1728.991455 766.026184,1777.986328 766.473633,1826.973999 
	C766.666321,1848.071533 764.678955,1868.762451 759.719666,1889.209717 
	C750.870300,1925.696899 736.272278,1958.975830 708.276611,1985.383911 
	C689.685608,2002.920654 668.568481,2014.364746 642.814270,2015.570801 
	C616.093933,2016.822144 589.735779,2014.020020 564.069214,2006.082642 
	C532.262939,1996.246826 505.435638,1979.165405 486.922607,1950.964844 
	C470.400970,1925.798096 461.030396,1897.773926 458.521149,1867.876221 
	C456.772430,1847.040161 456.535461,1826.041748 456.414520,1805.111206 
	C455.983124,1730.474121 455.958496,1655.834961 455.651306,1581.197021 
	C455.279846,1490.933228 454.783081,1400.670166 454.302582,1310.406860 
	C454.289154,1307.884766 453.842743,1305.364990 453.597992,1302.841553 
	C345.036255,1302.841553 237.202087,1302.841553 128.331192,1302.841553 
	C128.331192,1408.567017 128.331192,1513.783569 128.331161,1621.000000 
M1460.976074,777.736145 
	C1453.713013,778.377869 1446.455322,779.091675 1439.185791,779.648438 
	C1412.730103,781.674561 1386.243408,783.347107 1359.819092,785.717346 
	C1326.139771,788.738342 1292.445312,791.768494 1258.874023,795.771606 
	C1212.786133,801.267334 1166.647461,806.671204 1120.822876,813.954102 
	C1063.487427,823.066345 1006.310181,833.332397 949.316467,844.397217 
	C876.573975,858.519592 804.707214,876.454895 733.717224,897.784912 
	C720.161987,901.857788 706.679688,906.173340 691.469666,910.903809 
	C766.771729,1009.628967 841.086365,1107.059570 915.529846,1204.659058 
	C917.984436,1203.655884 919.486145,1203.056519 920.976685,1202.430542 
	C972.810547,1180.662720 1025.748413,1161.967773 1079.348511,1145.050781 
	C1161.784302,1119.032959 1245.367920,1097.452637 1329.969727,1079.809326 
	C1394.951904,1066.257690 1460.192871,1054.079834 1526.066528,1045.661987 
	C1574.400391,1039.485229 1622.734741,1033.217773 1671.182251,1028.055786 
	C1709.417847,1023.981995 1747.804077,1021.218750 1786.165771,1018.466003 
	C1812.652222,1016.565491 1839.202881,1015.472351 1865.740234,1014.395386 
	C1889.323486,1013.438354 1912.928345,1012.425171 1936.522583,1012.452271 
	C1986.462036,1012.509705 2036.402344,1013.094238 2086.338623,1013.743774 
	C2106.606201,1014.007324 2126.871582,1014.831726 2147.124268,1015.709351 
	C2173.991455,1016.873718 2200.853027,1018.205505 2227.702881,1019.716309 
	C2252.225342,1021.096191 2276.775146,1022.295349 2301.229736,1024.498169 
	C2337.869385,1027.798462 2374.458008,1031.708252 2411.026855,1035.734863 
	C2440.691895,1039.001343 2470.380859,1042.235596 2499.906982,1046.531128 
	C2545.851318,1053.215332 2591.780518,1060.137817 2637.505615,1068.158813 
	C2687.517090,1076.931641 2737.459961,1086.261597 2787.126953,1096.791260 
	C2869.992188,1114.358765 2952.325928,1134.238037 3033.825928,1157.438110 
	C3037.805664,1158.570923 3041.927734,1159.205566 3045.983398,1160.072144 
	C3044.586670,1156.790161 3042.528076,1154.824341 3040.296631,1153.079346 
	C2998.123535,1120.100220 2955.901611,1087.183960 2913.747314,1054.180786 
	C2840.695557,996.987671 2767.702637,939.719238 2694.584717,882.611145 
	C2691.601318,880.281189 2687.749756,878.580872 2684.041016,877.733032 
	C2610.567627,860.937134 2536.534912,846.890686 2462.215820,834.521240 
	C2406.606445,825.265930 2350.784180,817.155640 2294.895752,809.749390 
	C2240.027832,802.478455 2184.989990,796.433105 2129.961426,790.449768 
	C2099.311768,787.117249 2068.548584,784.751831 2037.800659,782.419189 
	C2007.034668,780.085083 1976.238037,778.088806 1945.429810,776.398560 
	C1915.255005,774.743042 1885.057373,773.398987 1854.853882,772.398865 
	C1824.604492,771.397156 1794.335083,770.434937 1764.074707,770.443787 
	C1710.136230,770.459534 1656.196289,771.084717 1602.260376,771.738220 
	C1581.993042,771.983826 1561.735596,773.024963 1541.473145,773.688416 
	C1533.823364,773.938965 1526.163940,773.991943 1518.523560,774.406067 
	C1499.975952,775.411621 1481.437012,776.576233 1460.976074,777.736145 
M1402.992310,475.665436 
	C1376.732910,476.331207 1350.467529,476.824005 1324.215454,477.705505 
	C1289.687988,478.864899 1255.161865,480.135742 1220.652344,481.730133 
	C1196.455566,482.848053 1172.262573,484.262726 1148.113281,486.132660 
	C1120.030273,488.307129 1091.981201,490.960907 1063.946777,493.706726 
	C1036.233398,496.421112 1008.469604,498.863770 980.883972,502.582642 
	C937.202698,508.471313 893.510925,514.507385 850.081726,521.981140 
	C798.761047,530.812866 747.561523,540.506653 696.589722,551.166565 
	C637.747742,563.472473 579.537170,578.517029 521.985046,595.967712 
	C503.275543,601.640686 484.707031,607.778748 464.997559,614.046448 
	C530.180969,699.491638 594.470276,783.764832 658.747498,868.022095 
	C707.239868,847.179260 756.099304,830.010437 805.714722,814.906738 
	C866.118103,796.519043 927.301270,781.136780 989.132690,768.537964 
	C1032.997925,759.599915 1077.116577,751.790710 1121.299561,744.562439 
	C1155.960693,738.891907 1190.850586,734.533630 1225.719360,730.246277 
	C1253.349976,726.848938 1281.079468,724.189514 1308.806885,721.660461 
	C1345.442017,718.318909 1382.098267,715.160339 1418.783325,712.431091 
	C1443.269653,710.609436 1467.809204,709.335449 1492.347534,708.422607 
	C1525.244873,707.198853 1558.165527,705.777344 1591.073730,705.835449 
	C1658.330688,705.954163 1725.587280,706.900879 1792.841187,707.735840 
	C1811.773804,707.970764 1830.702881,708.859192 1849.622192,709.702576 
	C1876.484009,710.900024 1903.347656,712.125427 1930.187744,713.721191 
	C1959.653564,715.473022 1989.108398,717.466736 2018.541260,719.705872 
	C2052.263184,722.271362 2085.990234,724.866760 2119.652344,728.103027 
	C2155.601074,731.559082 2191.489502,735.664246 2227.380127,739.699463 
	C2257.685059,743.106750 2288.004883,746.452026 2318.229004,750.492432 
	C2354.035156,755.279053 2389.782959,760.538391 2425.487549,766.038330 
	C2465.460693,772.195923 2505.356689,778.855652 2545.287354,785.289062 
	C2554.712158,786.807617 2564.142090,788.294678 2573.569824,789.796204 
	C2572.363037,787.185974 2570.892090,785.881165 2569.346924,784.670837 
	C2486.382080,719.687012 2403.388916,654.739014 2320.493164,589.667175 
	C2315.348877,585.629211 2309.754883,583.340088 2303.522705,581.949463 
	C2266.592529,573.708313 2229.819092,564.692078 2192.727783,557.260620 
	C2138.089844,546.313782 2083.305420,536.048950 2028.435181,526.330322 
	C1995.799072,520.549866 1962.921143,516.065796 1930.075073,511.558441 
	C1894.626099,506.693909 1859.116821,502.229797 1823.577148,498.077240 
	C1801.191284,495.461578 1778.714966,493.576813 1756.254639,491.651520 
	C1718.608276,488.424530 1680.962402,485.149323 1643.277710,482.429382 
	C1617.791870,480.589905 1592.247070,479.498657 1566.714966,478.387817 
	C1545.465820,477.463348 1524.201050,476.707520 1502.935547,476.396362 
	C1470.291870,475.918671 1437.641479,475.886597 1402.992310,475.665436 
M2144.750977,452.234100 
	C2104.115479,420.524933 2063.517090,388.767944 2022.779663,357.190155 
	C2019.206055,354.420105 2014.941895,352.052094 2010.621338,350.821716 
	C1994.328979,346.182007 1977.907349,341.984894 1961.485962,337.811493 
	C1903.535034,323.083466 1845.245605,309.844879 1786.377319,299.325653 
	C1745.231445,291.973267 1704.063965,284.655945 1662.745117,278.383728 
	C1625.378052,272.711395 1587.844238,268.026306 1550.289917,263.727692 
	C1507.150391,258.789764 1463.933105,254.480377 1420.699951,250.429703 
	C1393.623291,247.892807 1366.468628,246.116562 1339.323608,244.402420 
	C1313.480347,242.770477 1287.608276,241.573288 1261.740845,240.355072 
	C1244.151611,239.526688 1226.553345,238.773270 1208.950317,238.371109 
	C1173.025024,237.550354 1137.095703,236.676483 1101.164062,236.434174 
	C1078.223267,236.279465 1055.274902,237.209351 1032.330200,237.667908 
	C999.401184,238.326004 966.463989,238.726807 933.545837,239.741470 
	C902.006836,240.713593 870.479980,242.171707 838.962463,243.716812 
	C817.752930,244.756577 796.552429,246.098389 775.377563,247.698639 
	C742.638794,250.172806 709.885559,252.574051 677.212097,255.761154 
	C641.249146,259.269104 605.359680,263.545380 569.455750,267.640503 
	C517.021301,273.621033 464.952087,282.011475 413.119904,291.876099 
	C367.083527,300.637665 321.438293,311.068909 276.652740,324.984863 
	C268.494415,327.519836 260.532288,330.686279 251.372574,333.956421 
	C311.769379,413.144623 371.365570,491.283142 430.467072,568.773071 
	C459.108490,559.071716 486.293152,549.155640 513.912964,540.653015 
	C575.225525,521.778259 637.397766,506.018616 700.412964,494.058380 
	C751.902710,484.285706 803.677429,475.961365 855.428711,467.634247 
	C910.773743,458.728790 966.528015,453.036865 1022.362305,448.223297 
	C1055.070923,445.403442 1087.791260,442.647095 1120.545776,440.452087 
	C1147.708496,438.631805 1174.923950,437.557037 1202.125732,436.374146 
	C1222.047363,435.507812 1241.980835,434.844147 1261.915894,434.381073 
	C1280.561035,433.947906 1299.218384,433.566833 1317.864746,433.742310 
	C1369.127075,434.224701 1420.393555,434.692810 1471.645020,435.784943 
	C1508.183960,436.563568 1544.708740,438.173523 1581.226074,439.736267 
	C1604.768555,440.743805 1628.293335,442.218719 1651.812744,443.697601 
	C1682.279053,445.613373 1712.756104,447.438263 1743.183838,449.864288 
	C1773.261230,452.262360 1803.286987,455.313538 1833.327148,458.166931 
	C1854.788452,460.205505 1876.269165,462.102966 1897.681763,464.578125 
	C1929.295776,468.232574 1960.871338,472.233612 1992.436768,476.292969 
	C2023.352905,480.268860 2054.288330,484.147614 2085.120605,488.710388 
	C2125.800781,494.730530 2166.385986,501.390106 2207.021973,507.711670 
	C2209.074951,508.031006 2211.220459,507.752777 2215.581787,507.752777 
	C2191.171387,488.671539 2168.485352,470.938293 2144.750977,452.234100 
z"/>
<path fill="#101F6D" opacity="1.000000" stroke="none" 
	d="
M1862.331543,1434.000000 
	C1862.331543,1389.772827 1862.331543,1346.545654 1862.331543,1302.828369 
	C1974.273071,1302.828369 2085.150879,1302.828369 2196.052002,1302.828369 
	C2198.174072,1309.933594 2199.142822,2274.207031 2196.959961,2297.666260 
	C2194.573486,2297.880127 2192.044922,2298.303955 2189.516357,2298.304688 
	C2089.193848,2298.338135 1988.871460,2298.285156 1888.549438,2298.461426 
	C1882.980225,2298.471436 1879.428223,2296.715576 1876.069946,2292.437256 
	C1790.478394,2183.388672 1704.779663,2074.424316 1619.114868,1965.433350 
	C1592.000610,1930.935791 1564.932129,1896.402222 1537.831177,1861.894043 
	C1536.609741,1860.338867 1535.275635,1858.872070 1532.614746,1855.741211 
	C1532.614746,2004.167358 1532.614746,2150.776855 1532.614746,2297.857666 
	C1422.924438,2297.857666 1314.388794,2297.857666 1205.852783,2297.861084 
	C1203.941650,2290.970947 1203.147095,1320.908447 1205.112549,1303.007812 
	C1313.535400,1303.007812 1422.036987,1303.007812 1531.200684,1303.007812 
	C1640.700439,1438.227417 1750.621582,1573.967529 1860.542847,1709.707642 
	C1861.139038,1709.567017 1861.735352,1709.426392 1862.331543,1709.285767 
	C1862.331543,1617.857178 1862.331543,1526.428589 1862.331543,1434.000000 
z"/>
<path fill="#0F1F6D" opacity="1.000000" stroke="none" 
	d="
M2452.000000,2298.332031 
	C2403.030029,2298.332275 2355.060059,2298.332275 2306.380615,2298.332275 
	C2306.380615,1966.487427 2306.380615,1635.044312 2306.380615,1302.965820 
	C2589.703613,1302.965820 2873.133545,1302.965820 3157.115723,1302.965820 
	C3157.115723,1393.128418 3157.115723,1482.969116 3157.115723,1574.070679 
	C3128.660645,1574.641479 3100.160400,1574.243042 3071.670410,1574.316284 
	C3043.339111,1574.389160 3015.007568,1574.332275 2986.676025,1574.332275 
	C2958.011230,1574.332275 2929.346680,1574.332275 2900.681885,1574.332275 
	C2872.017090,1574.332275 2843.352539,1574.332275 2814.687744,1574.332275 
	C2786.356445,1574.332275 2758.024902,1574.332275 2729.693604,1574.332275 
	C2701.064941,1574.332275 2672.436523,1574.332275 2643.070801,1574.332275 
	C2643.070801,1607.358521 2643.070801,1639.813354 2643.070801,1673.358643 
	C2801.756592,1673.358643 2960.520752,1673.358643 3119.805664,1673.358643 
	C3119.805664,1754.617065 3119.805664,1834.793335 3119.805664,1916.055420 
	C2961.109619,1916.055420 2802.345459,1916.055420 2642.957520,1916.055420 
	C2642.957520,1950.969849 2642.957520,1984.809937 2642.957520,2018.913574 
	C2642.958496,2018.914795 2643.136963,2019.207153 2643.379883,2019.428955 
	C2643.608887,2019.637817 2643.885498,2019.848999 2644.176270,2019.924561 
	C2644.816406,2020.091064 2645.475098,2020.212769 2646.133545,2020.276733 
	C2646.794922,2020.341064 2647.465332,2020.324219 2648.131836,2020.324463 
	C2822.117920,2020.382324 2996.104004,2020.438110 3170.090088,2020.514038 
	C3170.370361,2020.514160 3170.650635,2020.812988 3171.630371,2021.369873 
	C3171.630371,2113.061035 3171.630371,2205.153320 3171.630371,2298.332031 
	C2932.061523,2298.332031 2692.530762,2298.332031 2452.000000,2298.332031 
z"/>
<path fill="#10206D" opacity="1.000000" stroke="none" 
	d="
M128.331177,1620.000000 
	C128.331192,1513.783569 128.331192,1408.567017 128.331192,1302.841553 
	C237.202087,1302.841553 345.036255,1302.841553 453.597992,1302.841553 
	C453.842743,1305.364990 454.289154,1307.884766 454.302582,1310.406860 
	C454.783081,1400.670166 455.279846,1490.933228 455.651306,1581.197021 
	C455.958496,1655.834961 455.983124,1730.474121 456.414520,1805.111206 
	C456.535461,1826.041748 456.772430,1847.040161 458.521149,1867.876221 
	C461.030396,1897.773926 470.400970,1925.798096 486.922607,1950.964844 
	C505.435638,1979.165405 532.262939,1996.246826 564.069214,2006.082642 
	C589.735779,2014.020020 616.093933,2016.822144 642.814270,2015.570801 
	C668.568481,2014.364746 689.685608,2002.920654 708.276611,1985.383911 
	C736.272278,1958.975830 750.870300,1925.696899 759.719666,1889.209717 
	C764.678955,1868.762451 766.666321,1848.071533 766.473633,1826.973999 
	C766.026184,1777.986328 766.415283,1728.991455 766.310120,1679.999756 
	C766.175720,1617.359497 765.980774,1554.718872 765.640991,1492.079346 
	C765.319458,1432.810181 764.775330,1373.542114 764.334717,1314.273560 
	C764.307922,1310.675171 764.331177,1307.076416 764.331177,1302.920410 
	C878.986023,1302.920410 992.761230,1302.920410 1107.210205,1302.920410 
	C1107.371948,1306.448853 1107.649902,1309.683716 1107.650269,1312.918579 
	C1107.671021,1511.885620 1108.033569,1710.853760 1107.395142,1909.818726 
	C1107.247681,1955.734009 1099.446899,2000.911743 1085.926392,2045.018677 
	C1070.207397,2096.297852 1045.617065,2142.510254 1010.024170,2182.804443 
	C956.859985,2242.991211 892.074280,2283.358643 812.913330,2299.831787 
	C776.135254,2307.485107 739.188904,2313.489746 701.569458,2314.291504 
	C670.301086,2314.958496 639.000122,2316.185547 607.757629,2315.404297 
	C574.945801,2314.583740 542.145935,2312.173096 509.414154,2309.544922 
	C467.392212,2306.170410 425.740997,2300.484863 385.118958,2288.322266 
	C340.078278,2274.836426 299.952118,2252.637939 264.627411,2221.911621 
	C231.014832,2192.674805 202.584778,2159.000977 180.513824,2120.093506 
	C164.934296,2092.629150 155.815018,2062.878662 147.959198,2032.553711 
	C140.123764,2002.307251 134.332962,1971.697144 130.624054,1940.708130 
	C129.246292,1929.196533 128.448608,1917.543457 128.427704,1905.953003 
	C128.256485,1810.968872 128.331161,1715.984375 128.331177,1620.000000 
z"/>
<path fill="#C12622" opacity="1.000000" stroke="none" 
	d="
M1461.935303,777.706482 
	C1481.437012,776.576233 1499.975952,775.411621 1518.523560,774.406067 
	C1526.163940,773.991943 1533.823364,773.938965 1541.473145,773.688416 
	C1561.735596,773.024963 1581.993042,771.983826 1602.260376,771.738220 
	C1656.196289,771.084717 1710.136230,770.459534 1764.074707,770.443787 
	C1794.335083,770.434937 1824.604492,771.397156 1854.853882,772.398865 
	C1885.057373,773.398987 1915.255005,774.743042 1945.429810,776.398560 
	C1976.238037,778.088806 2007.034668,780.085083 2037.800659,782.419189 
	C2068.548584,784.751831 2099.311768,787.117249 2129.961426,790.449768 
	C2184.989990,796.433105 2240.027832,802.478455 2294.895752,809.749390 
	C2350.784180,817.155640 2406.606445,825.265930 2462.215820,834.521240 
	C2536.534912,846.890686 2610.567627,860.937134 2684.041016,877.733032 
	C2687.749756,878.580872 2691.601318,880.281189 2694.584717,882.611145 
	C2767.702637,939.719238 2840.695557,996.987671 2913.747314,1054.180786 
	C2955.901611,1087.183960 2998.123535,1120.100220 3040.296631,1153.079346 
	C3042.528076,1154.824341 3044.586670,1156.790161 3045.983398,1160.072144 
	C3041.927734,1159.205566 3037.805664,1158.570923 3033.825928,1157.438110 
	C2952.325928,1134.238037 2869.992188,1114.358765 2787.126953,1096.791260 
	C2737.459961,1086.261597 2687.517090,1076.931641 2637.505615,1068.158813 
	C2591.780518,1060.137817 2545.851318,1053.215332 2499.906982,1046.531128 
	C2470.380859,1042.235596 2440.691895,1039.001343 2411.026855,1035.734863 
	C2374.458008,1031.708252 2337.869385,1027.798462 2301.229736,1024.498169 
	C2276.775146,1022.295349 2252.225342,1021.096191 2227.702881,1019.716309 
	C2200.853027,1018.205505 2173.991455,1016.873718 2147.124268,1015.709351 
	C2126.871582,1014.831726 2106.606201,1014.007324 2086.338623,1013.743774 
	C2036.402344,1013.094238 1986.462036,1012.509705 1936.522583,1012.452271 
	C1912.928345,1012.425171 1889.323486,1013.438354 1865.740234,1014.395386 
	C1839.202881,1015.472351 1812.652222,1016.565491 1786.165771,1018.466003 
	C1747.804077,1021.218750 1709.417847,1023.981995 1671.182251,1028.055786 
	C1622.734741,1033.217773 1574.400391,1039.485229 1526.066528,1045.661987 
	C1460.192871,1054.079834 1394.951904,1066.257690 1329.969727,1079.809326 
	C1245.367920,1097.452637 1161.784302,1119.032959 1079.348511,1145.050781 
	C1025.748413,1161.967773 972.810547,1180.662720 920.976685,1202.430542 
	C919.486145,1203.056519 917.984436,1203.655884 915.529846,1204.659058 
	C841.086365,1107.059570 766.771729,1009.628967 691.469666,910.903809 
	C706.679688,906.173340 720.161987,901.857788 733.717224,897.784912 
	C804.707214,876.454895 876.573975,858.519592 949.316467,844.397217 
	C1006.310181,833.332397 1063.487427,823.066345 1120.822876,813.954102 
	C1166.647461,806.671204 1212.786133,801.267334 1258.874023,795.771606 
	C1292.445312,791.768494 1326.139771,788.738342 1359.819092,785.717346 
	C1386.243408,783.347107 1412.730103,781.674561 1439.185791,779.648438 
	C1446.455322,779.091675 1453.713013,778.377869 1461.935303,777.706482 
z"/>
<path fill="#10206D" opacity="1.000000" stroke="none" 
	d="
M1403.993164,475.665405 
	C1437.641479,475.886597 1470.291870,475.918671 1502.935547,476.396362 
	C1524.201050,476.707520 1545.465820,477.463348 1566.714966,478.387817 
	C1592.247070,479.498657 1617.791870,480.589905 1643.277710,482.429382 
	C1680.962402,485.149323 1718.608276,488.424530 1756.254639,491.651520 
	C1778.714966,493.576813 1801.191284,495.461578 1823.577148,498.077240 
	C1859.116821,502.229797 1894.626099,506.693909 1930.075073,511.558441 
	C1962.921143,516.065796 1995.799072,520.549866 2028.435181,526.330322 
	C2083.305420,536.048950 2138.089844,546.313782 2192.727783,557.260620 
	C2229.819092,564.692078 2266.592529,573.708313 2303.522705,581.949463 
	C2309.754883,583.340088 2315.348877,585.629211 2320.493164,589.667175 
	C2403.388916,654.739014 2486.382080,719.687012 2569.346924,784.670837 
	C2570.892090,785.881165 2572.363037,787.185974 2573.569824,789.796204 
	C2564.142090,788.294678 2554.712158,786.807617 2545.287354,785.289062 
	C2505.356689,778.855652 2465.460693,772.195923 2425.487549,766.038330 
	C2389.782959,760.538391 2354.035156,755.279053 2318.229004,750.492432 
	C2288.004883,746.452026 2257.685059,743.106750 2227.380127,739.699463 
	C2191.489502,735.664246 2155.601074,731.559082 2119.652344,728.103027 
	C2085.990234,724.866760 2052.263184,722.271362 2018.541260,719.705872 
	C1989.108398,717.466736 1959.653564,715.473022 1930.187744,713.721191 
	C1903.347656,712.125427 1876.484009,710.900024 1849.622192,709.702576 
	C1830.702881,708.859192 1811.773804,707.970764 1792.841187,707.735840 
	C1725.587280,706.900879 1658.330688,705.954163 1591.073730,705.835449 
	C1558.165527,705.777344 1525.244873,707.198853 1492.347534,708.422607 
	C1467.809204,709.335449 1443.269653,710.609436 1418.783325,712.431091 
	C1382.098267,715.160339 1345.442017,718.318909 1308.806885,721.660461 
	C1281.079468,724.189514 1253.349976,726.848938 1225.719360,730.246277 
	C1190.850586,734.533630 1155.960693,738.891907 1121.299561,744.562439 
	C1077.116577,751.790710 1032.997925,759.599915 989.132690,768.537964 
	C927.301270,781.136780 866.118103,796.519043 805.714722,814.906738 
	C756.099304,830.010437 707.239868,847.179260 658.747498,868.022095 
	C594.470276,783.764832 530.180969,699.491638 464.997559,614.046448 
	C484.707031,607.778748 503.275543,601.640686 521.985046,595.967712 
	C579.537170,578.517029 637.747742,563.472473 696.589722,551.166565 
	C747.561523,540.506653 798.761047,530.812866 850.081726,521.981140 
	C893.510925,514.507385 937.202698,508.471313 980.883972,502.582642 
	C1008.469604,498.863770 1036.233398,496.421112 1063.946777,493.706726 
	C1091.981201,490.960907 1120.030273,488.307129 1148.113281,486.132660 
	C1172.262573,484.262726 1196.455566,482.848053 1220.652344,481.730133 
	C1255.161865,480.135742 1289.687988,478.864899 1324.215454,477.705505 
	C1350.467529,476.824005 1376.732910,476.331207 1403.993164,475.665405 
z"/>
<path fill="#C12622" opacity="1.000000" stroke="none" 
	d="
M2145.275391,452.719604 
	C2168.485352,470.938293 2191.171387,488.671539 2215.581787,507.752777 
	C2211.220459,507.752777 2209.074951,508.031006 2207.021973,507.711670 
	C2166.385986,501.390106 2125.800781,494.730530 2085.120605,488.710388 
	C2054.288330,484.147614 2023.352905,480.268860 1992.436768,476.292969 
	C1960.871338,472.233612 1929.295776,468.232574 1897.681763,464.578125 
	C1876.269165,462.102966 1854.788452,460.205505 1833.327148,458.166931 
	C1803.286987,455.313538 1773.261230,452.262360 1743.183838,449.864288 
	C1712.756104,447.438263 1682.279053,445.613373 1651.812744,443.697601 
	C1628.293335,442.218719 1604.768555,440.743805 1581.226074,439.736267 
	C1544.708740,438.173523 1508.183960,436.563568 1471.645020,435.784943 
	C1420.393555,434.692810 1369.127075,434.224701 1317.864746,433.742310 
	C1299.218384,433.566833 1280.561035,433.947906 1261.915894,434.381073 
	C1241.980835,434.844147 1222.047363,435.507812 1202.125732,436.374146 
	C1174.923950,437.557037 1147.708496,438.631805 1120.545776,440.452087 
	C1087.791260,442.647095 1055.070923,445.403442 1022.362305,448.223297 
	C966.528015,453.036865 910.773743,458.728790 855.428711,467.634247 
	C803.677429,475.961365 751.902710,484.285706 700.412964,494.058380 
	C637.397766,506.018616 575.225525,521.778259 513.912964,540.653015 
	C486.293152,549.155640 459.108490,559.071716 430.467072,568.773071 
	C371.365570,491.283142 311.769379,413.144623 251.372574,333.956421 
	C260.532288,330.686279 268.494415,327.519836 276.652740,324.984863 
	C321.438293,311.068909 367.083527,300.637665 413.119904,291.876099 
	C464.952087,282.011475 517.021301,273.621033 569.455750,267.640503 
	C605.359680,263.545380 641.249146,259.269104 677.212097,255.761154 
	C709.885559,252.574051 742.638794,250.172806 775.377563,247.698639 
	C796.552429,246.098389 817.752930,244.756577 838.962463,243.716812 
	C870.479980,242.171707 902.006836,240.713593 933.545837,239.741470 
	C966.463989,238.726807 999.401184,238.326004 1032.330200,237.667908 
	C1055.274902,237.209351 1078.223267,236.279465 1101.164062,236.434174 
	C1137.095703,236.676483 1173.025024,237.550354 1208.950317,238.371109 
	C1226.553345,238.773270 1244.151611,239.526688 1261.740845,240.355072 
	C1287.608276,241.573288 1313.480347,242.770477 1339.323608,244.402420 
	C1366.468628,246.116562 1393.623291,247.892807 1420.699951,250.429703 
	C1463.933105,254.480377 1507.150391,258.789764 1550.289917,263.727692 
	C1587.844238,268.026306 1625.378052,272.711395 1662.745117,278.383728 
	C1704.063965,284.655945 1745.231445,291.973267 1786.377319,299.325653 
	C1845.245605,309.844879 1903.535034,323.083466 1961.485962,337.811493 
	C1977.907349,341.984894 1994.328979,346.182007 2010.621338,350.821716 
	C2014.941895,352.052094 2019.206055,354.420105 2022.779663,357.190155 
	C2063.517090,388.767944 2104.115479,420.524933 2145.275391,452.719604 
z"/>
</svg>